<?xml version="1.0" encoding="iso-8859-1"?>
<!-- Generator: Adobe Illustrator 25.1.0, SVG Export Plug-In . SVG Version: 6.00 Build 0)  -->
<svg version="1.1" id="Calque_1" xmlns="http://www.w3.org/2000/svg" xmlns:xlink="http://www.w3.org/1999/xlink" x="0px" y="0px"
	 viewBox="0 0 24 24" style="enable-background:new 0 0 24 24;" xml:space="preserve">
<path style="fill:#D8F3DC;" d="M4.172,4.109l5.354-3.011c0.36-0.223,0.813-0.23,1.162-0.018c0.453,0.275,0.503,0.779,0.507,0.833
	c0,3.151,0,6.302,0,9.453c0.002,0.073-0.004,0.225-0.093,0.389c-0.074,0.136-0.171,0.22-0.229,0.262
	c-0.251,0.149-5.959,3.541-8.019,4.513c-0.346,0.163-0.984,0.445-1.441,0.17c-0.367-0.221-0.46-0.708-0.488-0.998
	c0-2.182,0-4.363,0-6.545C0.925,9.097,0.929,8.554,1.371,8.228c0.39-0.288,0.958-0.286,1.397,0.018
	c1.449,0.874,2.898,1.748,4.347,2.622c0.59,0.216,1.22,0.073,1.531-0.315c0.421-0.524,0.266-1.503-0.542-1.978
	C6.631,7.698,5.157,6.822,3.684,5.946C3.63,5.909,3.324,5.683,3.276,5.277c-0.065-0.541,0.388-0.886,0.408-0.9
	C3.846,4.288,4.009,4.199,4.172,4.109z"/>
<path style="fill:#D8F3DC;" d="M19.828,4.109l-5.354-3.011c-0.36-0.223-0.813-0.23-1.162-0.018
	c-0.453,0.275-0.503,0.779-0.507,0.833c0,3.151,0,6.302,0,9.453c-0.002,0.073,0.004,0.225,0.093,0.389
	c0.074,0.136,0.171,0.22,0.229,0.262c0.251,0.149,5.959,3.541,8.019,4.513c0.346,0.163,0.984,0.445,1.441,0.17
	c0.367-0.221,0.46-0.708,0.488-0.998c0-2.182,0-4.363,0-6.545c0.001-0.061-0.003-0.605-0.445-0.931
	c-0.39-0.288-0.958-0.286-1.397,0.018c-1.449,0.874-2.898,1.748-4.347,2.622c-0.59,0.216-1.22,0.073-1.531-0.315
	c-0.421-0.524-0.266-1.503,0.542-1.978c1.474-0.876,2.947-1.752,4.421-2.628c0.053-0.038,0.359-0.263,0.408-0.669
	c0.065-0.541-0.388-0.886-0.408-0.9C20.154,4.288,19.991,4.199,19.828,4.109z"/>
<path style="fill:#D8F3DC;" d="M8.694,22.665l-5.328-3.057c-0.376-0.196-0.609-0.577-0.597-0.981
	c0.016-0.524,0.435-0.818,0.48-0.849c2.774-1.575,5.547-3.151,8.321-4.726c0.063-0.038,0.2-0.109,0.389-0.116
	c0.157-0.005,0.279,0.036,0.345,0.064c0.257,0.139,6.097,3.307,7.983,4.576c0.317,0.213,0.884,0.616,0.87,1.142
	c-0.011,0.423-0.393,0.746-0.634,0.915c-1.921,1.091-3.841,2.182-5.762,3.273c-0.054,0.031-0.534,0.3-1.042,0.086
	c-0.448-0.189-0.73-0.674-0.683-1.2c0.045-1.671,0.09-3.343,0.135-5.014c-0.104-0.61-0.546-1.076-1.043-1.147
	c-0.672-0.097-1.456,0.525-1.47,1.451c-0.034,1.693-0.069,3.387-0.103,5.08c-0.007,0.064-0.052,0.438-0.385,0.682
	c-0.443,0.326-0.974,0.112-0.997,0.102C9.014,22.853,8.854,22.759,8.694,22.665z"/>
</svg>
