<svg xmlns="http://www.w3.org/2000/svg" viewBox="0 0 256 256" width="256" height="256" fill="rgba(170, 175, 185, 1)">
    <path d="M48 133.348C50.9455 133.348 53.3333 135.742 53.3333 138.696V213.565C53.3333 216.519 50.9455 218.913 48 218.913H16C13.0545 218.913 10.6667 216.519 10.6667 213.565V138.696C10.6667 135.742 13.0545 133.348 16 133.348H48Z"/>
    <path d="M112 90.5652C114.946 90.5652 117.333 92.9595 117.333 95.913V213.565C117.333 216.519 114.946 218.913 112 218.913H80C77.0545 218.913 74.6667 216.519 74.6667 213.565V95.913C74.6667 92.9595 77.0545 90.5652 80 90.5652H112Z"/>
    <path d="M176 5C178.946 5 181.333 7.3943 181.333 10.3478V213.565C181.333 216.519 178.946 218.913 176 218.913H144C141.054 218.913 138.667 216.519 138.667 213.565V10.3478C138.667 7.3943 141.054 5 144 5H176Z"/>
    <path d="M240 47.7826C242.946 47.7826 245.333 50.1769 245.333 53.1304V213.565C245.333 216.519 242.946 218.913 240 218.913H208C205.054 218.913 202.667 216.519 202.667 213.565V53.1304C202.667 50.1769 205.054 47.7826 208 47.7826H240Z"/>
    <path d="M0 234.957C0 232.003 2.38781 229.609 5.33333 229.609H250.667C253.612 229.609 256 232.003 256 234.957V245.652C256 248.606 253.612 251 250.667 251H5.33333C2.38781 251 0 248.606 0 245.652V234.957Z"/>
</svg>